# xmcd
#
# Track frame offsets:
#	150
#	15727
#	29157
#	43576
#	58588
#	72408
#	88152
#	98825
#	115392
#	132815
#	150624
#
# Disc length: 2173 seconds
#
# Revision: 1
# Processed by: cddbd v1.5.2PL0 Copyright (c) Steve Scherf et al.
# Submitted via: audiograbber 1.83.01
#
DISCID=96087b0b
DTITLE=Sherry - Heart Ache And Heart Throbs Sherry
DYEAR=2005
DGENRE=Country
TTITLE0=Alittle At A Time
TTITLE1=Me, Myself And I
TTITLE2=You´re The Only One I Dream Of
TTITLE3=Love I Dream About
TTITLE4=Babe I´m Walking
TTITLE5=Sometimes I Wish I´d Let Him Love Me
TTITLE6=Shiny Red 4x4 Dually Pickup Truck
TTITLE7=I Can´t Take A Full Moon On A An Empty Heart
TTITLE8=Going Through The Motions 
TTITLE9=Picture Of Us
TTITLE10=It´s You
EXTD=
EXTT0=
EXTT1=
EXTT2=
EXTT3=
EXTT4=
EXTT5=
EXTT6=
EXTT7=
EXTT8=
EXTT9=
EXTT10=
PLAYORDER=
